<svg width="62" height="65" viewBox="0 0 62 65" fill="none" xmlns="http://www.w3.org/2000/svg">
<g filter="url(#filter0_d_2_15410)">
<rect x="15" y="10" width="32" height="32" rx="15" fill="white"/>
<path d="M35.7071 22.7071C36.0976 22.3166 36.0976 21.6834 35.7071 21.2929C35.3166 20.9024 34.6834 20.9024 34.2929 21.2929L31 24.5858L27.7071 21.2929C27.3166 20.9024 26.6834 20.9024 26.2929 21.2929C25.9024 21.6834 25.9024 22.3166 26.2929 22.7071L29.5858 26L26.2929 29.2929C25.9024 29.6834 25.9024 30.3166 26.2929 30.7071C26.6834 31.0976 27.3166 31.0976 27.7071 30.7071L31 27.4142L34.2929 30.7071C34.6834 31.0976 35.3166 31.0976 35.7071 30.7071C36.0976 30.3166 36.0976 29.6834 35.7071 29.2929L32.4142 26L35.7071 22.7071Z" fill="#3A3A3A"/>
</g>
<defs>
<filter id="filter0_d_2_15410" x="0" y="0" width="62" height="78" filterUnits="userSpaceOnUse" color-interpolation-filters="sRGB">
<feFlood flood-opacity="0" result="BackgroundImageFix"/>
<feColorMatrix in="SourceAlpha" type="matrix" values="0 0 0 0 0 0 0 0 0 0 0 0 0 0 0 0 0 0 127 0" result="hardAlpha"/>
<feOffset dy="5"/>
<feGaussianBlur stdDeviation="7.5"/>
<feColorMatrix type="matrix" values="0 0 0 0 0 0 0 0 0 0 0 0 0 0 0 0 0 0 0.1 0"/>
<feBlend mode="normal" in2="BackgroundImageFix" result="effect1_dropShadow_2_15410"/>
<feBlend mode="normal" in="SourceGraphic" in2="effect1_dropShadow_2_15410" result="shape"/>
</filter>
</defs>
</svg>
